<?xml version="1.0"?>
<svg xmlns="http://www.w3.org/2000/svg" id="Ebene_1" data-name="Ebene 1" viewBox="0 0 640 800" width="252" height="315"><defs><style>.cls-1{fill:#0578be;}</style></defs>
    <rect width="100%" height="100%" fill="white"/><path class="cls-1" d="M298.6807,450.0969l30.7392-.2227q18.7881-.1362,27.4112,7.0948t8.7392,23.1367q.0762,10.4662-4.4062,17.5449a18.2891,18.2891,0,0,1-12.3,8.6182l.0058.8242q10.2363,2.4814,14.8213,9.4521,4.5805,6.9712,4.667,18.5918.1186,16.3991-8.5908,25.7325-8.71,9.3354-23.9561,9.4453l-36.26.2627ZM320.1279,498.4l10.3018-.0742q7.0854-.0513,9.9434-3.8633,2.855-3.81,2.8027-11.3105-.0541-7.4957-3.374-10.7295-3.3209-3.23-10.4063-3.1807l-9.4775.0684Zm.1358,18.7061.2431,33.706,11.29-.081q7.0034-.0513,10.3935-4.36,3.3867-4.31,3.3243-13.2939-.1158-16.1514-14.29-16.05Z"/><path class="cls-1" d="M409.0293,569.7854l-22.25.1611-.8711-120.48,53.9775-.3906.1407,19.3662-31.7276.23.2422,33.458,29.585-.2138.14,19.3652-29.5849.2139Z"/><path class="cls-1" d="M522.6006,485.5637q.1392,19.2027-9.4688,29.5293-9.6108,10.33-27.9043,10.4629l-5.6035.04.3155,43.6768-22.4151.1621-.8711-120.48,30.5733-.2207Q522.3331,448.4788,522.6006,485.5637Zm-43.1172,20.585,4.2852-.0313q8.24-.0586,12.2461-4.6211,4.0034-4.5615,3.9306-14.8633-.0688-9.4761-3.81-14.0224-3.7426-4.5484-11.4882-4.4912l-5.4385.039Z"/><path class="cls-1" d="M209.633,183.824c0,104.8641-85.0092,189.8732-189.8732,189.8732v21.097c116.5156,0,210.97-94.4546,210.97-210.97Z"/><path class="cls-1" d="M146.3419,183.824h-21.097A105.4851,105.4851,0,0,1,19.76,289.3091v21.097A126.5821,126.5821,0,0,0,146.3419,183.824Z"/><path class="cls-1" d="M188.5359,183.824h-21.097A147.6792,147.6792,0,0,1,19.76,331.5032V352.6A168.7761,168.7761,0,0,0,188.5359,183.824Z"/><path class="cls-1" d="M336.8459,310.4061v-21.097c-116.5156,0-210.97,94.4546-210.97,210.97V632.1357h21.097V500.2793C146.9727,395.4152,231.9818,310.4061,336.8459,310.4061Z"/><path class="cls-1" d="M189.1668,500.2793A147.6791,147.6791,0,0,1,336.8459,352.6v-21.097A168.7761,168.7761,0,0,0,168.07,500.2793V632.1357h21.097Z"/><path class="cls-1" d="M231.3608,500.2793A105.4851,105.4851,0,0,1,336.8459,394.7942v-21.097A126.5821,126.5821,0,0,0,210.2638,500.2793V632.1357h21.097Z"/><path class="cls-1" d="M300.9639,584.8869h5.5879q3.889,0,5.6211,1.1328a3.9681,3.9681,0,0,1,1.7314,3.58,4.3371,4.3371,0,0,1-.85,2.7422,3.7977,3.7977,0,0,1-2.4463,1.3779v.1289a4.8558,4.8558,0,0,1,2.916,1.4747,4.454,4.454,0,0,1,.9336,2.98,4.8318,4.8318,0,0,1-1.7705,3.9727,7.6157,7.6157,0,0,1-4.9248,1.4355h-6.7988Zm3.0771,7.7774h2.9619a5.07,5.07,0,0,0,2.82-.6123,2.3423,2.3423,0,0,0,.8877-2.0791,2.0843,2.0843,0,0,0-.9589-1.919,5.9954,5.9954,0,0,0-3.045-.5918h-2.666Zm0,2.498v5.9619h3.2705a4.8186,4.8186,0,0,0,2.917-.74,2.7368,2.7368,0,0,0,.9854-2.3379,2.48,2.48,0,0,0-1.0049-2.1758,5.327,5.327,0,0,0-3.0518-.708Z"/><path class="cls-1" d="M329.0811,603.7121l-.4248-1.8672h-.1543a4.2953,4.2953,0,0,1-1.7969,1.5586,6.0142,6.0142,0,0,1-2.6592.5664,5.2192,5.2192,0,0,1-3.8623-1.288,5.335,5.335,0,0,1-1.2754-3.9014v-9.31H321.96v8.7813a3.8091,3.8091,0,0,0,.67,2.4531,2.5571,2.5571,0,0,0,2.0986.8174,3.3443,3.3443,0,0,0,2.8008-1.1387,6.2809,6.2809,0,0,0,.8955-3.8184v-7.0947h3.0381v14.2412Z"/><path class="cls-1" d="M349.0684,603.7121h-3.0391v-8.7558a3.8327,3.8327,0,0,0-.6631-2.46,2.5669,2.5669,0,0,0-2.1055-.8105,3.347,3.347,0,0,0-2.8066,1.1328,6.2535,6.2535,0,0,0-.8887,3.7988v7.0947h-3.0263V589.4709h2.3691l.4248,1.8672h.1553a4.2055,4.2055,0,0,1,1.8281-1.5713,6.1284,6.1284,0,0,1,2.627-.5537q5.124,0,5.125,5.2149Z"/><path class="cls-1" d="M358.999,603.97a4.963,4.963,0,0,1-4.1591-1.9316,10.5859,10.5859,0,0,1,.0195-10.874,5.008,5.008,0,0,1,4.1914-1.9512,4.9112,4.9112,0,0,1,4.2754,2.0732h.1543a18.0473,18.0473,0,0,1-.2188-2.4208V583.676h3.0391v20.0361h-2.3692l-.5283-1.8672h-.1416A4.8375,4.8375,0,0,1,358.999,603.97Zm.8116-2.4472a3.2933,3.2933,0,0,0,2.7168-1.0489,5.53,5.53,0,0,0,.8759-3.4062v-.4248a6.3824,6.3824,0,0,0-.8759-3.8242,3.2494,3.2494,0,0,0-2.7422-1.1328,2.7823,2.7823,0,0,0-2.46,1.2939,6.6284,6.6284,0,0,0-.8623,3.6885,6.4608,6.4608,0,0,0,.8369,3.6123A2.8249,2.8249,0,0,0,359.8106,601.5227Z"/><path class="cls-1" d="M382.9609,603.7121h-3.0517V584.8869h10.623v2.6006h-7.5713v5.8848h7.0948v2.6142h-7.0948Z"/><path class="cls-1" d="M401.4024,589.2131a7.28,7.28,0,0,1,1.5068.1289l-.2959,2.8193a5.7536,5.7536,0,0,0-1.34-.1542,3.8765,3.8765,0,0,0-2.9414,1.1845,4.2812,4.2812,0,0,0-1.1269,3.0781v7.4424h-3.0264V589.4709h2.3692l.3994,2.5108h.1543a5.657,5.657,0,0,1,1.8476-2.0215A4.393,4.393,0,0,1,401.4024,589.2131Z"/><path class="cls-1" d="M412.5537,603.97a6.8907,6.8907,0,0,1-5.1963-1.9384,7.3566,7.3566,0,0,1-1.873-5.3369,8.0691,8.0691,0,0,1,1.7383-5.4854A6.0026,6.0026,0,0,1,412,589.2131a5.8684,5.8684,0,0,1,4.4551,1.7129,6.5463,6.5463,0,0,1,1.6357,4.7129v1.6348h-9.49a4.6785,4.6785,0,0,0,1.12,3.1875,3.9034,3.9034,0,0,0,2.9746,1.1132,10.9631,10.9631,0,0,0,2.35-.2382,12.2551,12.2551,0,0,0,2.3369-.792v2.46a9.3221,9.3221,0,0,1-2.24.7471A13.7715,13.7715,0,0,1,412.5537,603.97ZM412,591.5051a3.04,3.04,0,0,0-2.3115.9141,4.357,4.357,0,0,0-1.0361,2.666h6.4638a3.9447,3.9447,0,0,0-.85-2.6719A2.908,2.908,0,0,0,412,591.5051Z"/><path class="cls-1" d="M422.2559,585.6975a1.6759,1.6759,0,0,1,.4433-1.249,1.7369,1.7369,0,0,1,1.2686-.4375,1.7,1.7,0,0,1,1.2431.4375,1.6764,1.6764,0,0,1,.4444,1.249,1.6441,1.6441,0,0,1-.4444,1.2168,1.6791,1.6791,0,0,1-1.2431.4443,1.7158,1.7158,0,0,1-1.2686-.4443A1.6435,1.6435,0,0,1,422.2559,585.6975Zm3.206,18.0146h-3.0263V589.4709h3.0263Z"/><path class="cls-1" d="M433.4551,596.1926l1.7129-2.1377,4.3008-4.584h3.4892l-5.73,6.1162,6.0908,8.125h-3.5546l-4.5713-6.2451-1.6612,1.3652v4.88h-3V583.676h3v9.7734l-.1543,2.7432Z"/><path class="cls-1" d="M446.5039,585.6975a1.676,1.676,0,0,1,.4434-1.249,1.7365,1.7365,0,0,1,1.2685-.4375,1.7,1.7,0,0,1,1.2432.4375,1.6764,1.6764,0,0,1,.4443,1.249,1.644,1.644,0,0,1-.4443,1.2168,1.6794,1.6794,0,0,1-1.2432.4443,1.7154,1.7154,0,0,1-1.2685-.4443A1.6435,1.6435,0,0,1,446.5039,585.6975Zm3.2061,18.0146h-3.0264V589.4709H449.71Z"/><path class="cls-1" d="M462.0039,589.2131a7.28,7.28,0,0,1,1.5068.1289l-.2958,2.8193a5.7536,5.7536,0,0,0-1.34-.1542,3.8764,3.8764,0,0,0-2.9414,1.1845,4.2809,4.2809,0,0,0-1.127,3.0781v7.4424H454.78V589.4709h2.3691l.3994,2.5108h.1543a5.6581,5.6581,0,0,1,1.8477-2.0215A4.3927,4.3927,0,0,1,462.0039,589.2131Z"/><path class="cls-1" d="M472.6924,603.97a6.233,6.233,0,0,1-4.9121-1.8867,9.56,9.56,0,0,1,.0771-10.9385,6.52,6.52,0,0,1,5.08-1.9316,9.5262,9.5262,0,0,1,4.0557.8369l-.9141,2.4336a9.1646,9.1646,0,0,0-3.168-.7471q-3.6957,0-3.6953,4.9063a5.8691,5.8691,0,0,0,.9209,3.5986,3.1832,3.1832,0,0,0,2.6973,1.2041,7.7364,7.7364,0,0,0,3.8242-1.0039v2.64a5.9982,5.9982,0,0,1-1.7314.6826A10.4382,10.4382,0,0,1,472.6924,603.97Z"/><path class="cls-1" d="M493.3,603.7121h-3.0391v-8.7558a3.8333,3.8333,0,0,0-.663-2.46,2.5671,2.5671,0,0,0-2.1055-.8105,3.3419,3.3419,0,0,0-2.8008,1.14,6.2762,6.2762,0,0,0-.8945,3.8174v7.0693h-3.0264V583.676h3.0264v5.0859a23.8508,23.8508,0,0,1-.1543,2.6143h.1924a4.2041,4.2041,0,0,1,1.72-1.5967,5.5345,5.5345,0,0,1,2.5684-.5664q5.1766,0,5.1767,5.2149Z"/><path class="cls-1" d="M501.333,603.7121h-3.0264V583.676h3.0264Z"/><path class="cls-1" d="M506.2422,585.6975a1.676,1.676,0,0,1,.4434-1.249,1.7365,1.7365,0,0,1,1.2685-.4375,1.7,1.7,0,0,1,1.2432.4375,1.6764,1.6764,0,0,1,.4443,1.249,1.644,1.644,0,0,1-.4443,1.2168,1.68,1.68,0,0,1-1.2432.4443,1.7154,1.7154,0,0,1-1.2685-.4443A1.6435,1.6435,0,0,1,506.2422,585.6975Zm3.206,18.0146h-3.0263V589.4709h3.0263Z"/><path class="cls-1" d="M520.3291,603.97a6.233,6.233,0,0,1-4.9121-1.8867,9.56,9.56,0,0,1,.0771-10.9385,6.52,6.52,0,0,1,5.08-1.9316,9.5262,9.5262,0,0,1,4.0557.8369l-.9141,2.4336a9.1641,9.1641,0,0,0-3.1679-.7471q-3.6959,0-3.6954,4.9063a5.8691,5.8691,0,0,0,.9209,3.5986,3.1832,3.1832,0,0,0,2.6973,1.2041,7.7361,7.7361,0,0,0,3.8242-1.0039v2.64a5.9971,5.9971,0,0,1-1.7314.6826A10.4382,10.4382,0,0,1,520.3291,603.97Z"/><path class="cls-1" d="M540.9375,603.7121h-3.0391v-8.7558a3.8333,3.8333,0,0,0-.663-2.46,2.5671,2.5671,0,0,0-2.1055-.8105,3.3419,3.3419,0,0,0-2.8008,1.14,6.2762,6.2762,0,0,0-.8945,3.8174v7.0693h-3.0264V583.676h3.0264v5.0859a23.8508,23.8508,0,0,1-.1543,2.6143h.1924a4.2041,4.2041,0,0,1,1.72-1.5967,5.5343,5.5343,0,0,1,2.5683-.5664q5.1768,0,5.1768,5.2149Z"/><path class="cls-1" d="M552.24,603.97a6.89,6.89,0,0,1-5.1962-1.9384,7.3562,7.3562,0,0,1-1.8731-5.3369,8.0691,8.0691,0,0,1,1.7383-5.4854,6.0029,6.0029,0,0,1,4.7773-1.9961,5.8682,5.8682,0,0,1,4.4551,1.7129,6.5459,6.5459,0,0,1,1.6358,4.7129v1.6348h-9.49a4.6785,4.6785,0,0,0,1.12,3.1875,3.9034,3.9034,0,0,0,2.9746,1.1132,10.9634,10.9634,0,0,0,2.35-.2382,12.26,12.26,0,0,0,2.3369-.792v2.46a9.3243,9.3243,0,0,1-2.24.7471A13.7708,13.7708,0,0,1,552.24,603.97Zm-.5537-12.4648a3.04,3.04,0,0,0-2.3115.9141,4.357,4.357,0,0,0-1.0361,2.666h6.4638a3.9437,3.9437,0,0,0-.85-2.6719A2.9079,2.9079,0,0,0,551.6865,591.5051Z"/><path class="cls-1" d="M569.375,589.2131a7.28,7.28,0,0,1,1.5068.1289l-.2959,2.8193a5.7521,5.7521,0,0,0-1.34-.1542,3.8764,3.8764,0,0,0-2.9414,1.1845,4.2809,4.2809,0,0,0-1.127,3.0781v7.4424h-3.0263V589.4709h2.3691l.3994,2.5108h.1543a5.6581,5.6581,0,0,1,1.8477-2.0215A4.3925,4.3925,0,0,1,569.375,589.2131Z"/><path class="cls-1" d="M313.4287,618.7072a5.4915,5.4915,0,0,1-1.9316,4.52,8.5146,8.5146,0,0,1-5.499,1.57H304.041v7.0439h-3.0771V613.0158h5.4209a8.2071,8.2071,0,0,1,5.2861,1.4414A5.1782,5.1782,0,0,1,313.4287,618.7072Zm-9.3877,3.502h1.6358a5.857,5.857,0,0,0,3.4765-.8242,2.9975,2.9975,0,0,0,1.1074-2.5752,2.9253,2.9253,0,0,0-.9912-2.4209,4.8987,4.8987,0,0,0-3.0908-.7979H304.041Z"/><path class="cls-1" d="M325.624,619.8918h-3.4765V631.841h-3.0391V619.8918h-2.3437v-1.417l2.3437-.9267v-.9268a5.1865,5.1865,0,0,1,1.1846-3.7412,4.8437,4.8437,0,0,1,3.6191-1.2168,9.6458,9.6458,0,0,1,3.1416.5283l-.7988,2.292a6.9751,6.9751,0,0,0-2.1377-.36,1.74,1.74,0,0,0-1.5.6367,3.21,3.21,0,0,0-.47,1.9121V617.6h3.4765Zm2.2412-6.0654a1.676,1.676,0,0,1,.4434-1.249,1.7368,1.7368,0,0,1,1.2686-.4375,1.7,1.7,0,0,1,1.2431.4375,1.6764,1.6764,0,0,1,.4444,1.249,1.6441,1.6441,0,0,1-.4444,1.2168,1.6793,1.6793,0,0,1-1.2431.4443,1.7157,1.7157,0,0,1-1.2686-.4443A1.6435,1.6435,0,0,1,327.8652,613.8264Zm3.2061,18.0146h-3.0264V617.6h3.0264Z"/><path class="cls-1" d="M348.8145,631.841h-3.0391v-8.7558a3.8327,3.8327,0,0,0-.6631-2.46,2.5669,2.5669,0,0,0-2.1055-.81,3.3469,3.3469,0,0,0-2.8066,1.1328,6.2535,6.2535,0,0,0-.8887,3.7988v7.0947h-3.0263V617.6h2.3691l.4248,1.8672h.1553a4.2055,4.2055,0,0,1,1.8281-1.5713,6.1278,6.1278,0,0,1,2.627-.5537q5.124,0,5.125,5.2149Z"/><path class="cls-1" d="M365.9121,617.6v1.6612l-2.4346.45a3.9134,3.9134,0,0,1,.5538,1.1074,4.3546,4.3546,0,0,1,.22,1.3906,4.2617,4.2617,0,0,1-1.5195,3.4639,6.3583,6.3583,0,0,1-4.1856,1.2617,6.7935,6.7935,0,0,1-1.2353-.1026,1.7029,1.7029,0,0,0-.98,1.4161.7867.7867,0,0,0,.458.7343,3.948,3.948,0,0,0,1.68.2442h2.4853a5.5254,5.5254,0,0,1,3.58,1.0049,3.5317,3.5317,0,0,1,1.2226,2.8974,4.2119,4.2119,0,0,1-1.9951,3.7334,10.5081,10.5081,0,0,1-5.7695,1.3135,7.9558,7.9558,0,0,1-4.4424-1.03,3.3287,3.3287,0,0,1-1.5322-2.9355,3.1248,3.1248,0,0,1,.831-2.208,4.4543,4.4543,0,0,1,2.3243-1.2432,2.2639,2.2639,0,0,1-.9981-.83,2.0967,2.0967,0,0,1-.3926-1.2041,2.0689,2.0689,0,0,1,.45-1.3515,5.1984,5.1984,0,0,1,1.34-1.0948,3.96,3.96,0,0,1-1.7969-1.5517,4.5658,4.5658,0,0,1-.6885-2.5176,4.5134,4.5134,0,0,1,1.461-3.5928,6.147,6.147,0,0,1,4.166-1.2744,10.169,10.169,0,0,1,1.2685.084,7.88,7.88,0,0,1,.9971.1738Zm-11.19,16.4561a1.6653,1.6653,0,0,0,.8818,1.5068,4.8548,4.8548,0,0,0,2.48.5274,7.4985,7.4985,0,0,0,3.6826-.708,2.1224,2.1224,0,0,0,1.21-1.88,1.41,1.41,0,0,0-.6631-1.32,5.3258,5.3258,0,0,0-2.4658-.3926h-2.292a3.2168,3.2168,0,0,0-2.0664.6123A2.0046,2.0046,0,0,0,354.7217,634.0559Zm1.3008-11.8467a2.8677,2.8677,0,0,0,.6884,2.06,2.6071,2.6071,0,0,0,1.9766.7208q2.628,0,2.627-2.8067a3.1854,3.1854,0,0,0-.65-2.1445,2.47,2.47,0,0,0-1.9766-.753,2.5483,2.5483,0,0,0-1.9893.7471A3.1413,3.1413,0,0,0,356.0225,622.2092Z"/><path class="cls-1" d="M379.3369,627.7854a3.7255,3.7255,0,0,1-1.5195,3.1992,7.2711,7.2711,0,0,1-4.3525,1.1142,10.2754,10.2754,0,0,1-4.57-.8632v-2.6133a11.2218,11.2218,0,0,0,4.6739,1.1582q2.7935,0,2.7939-1.6865a1.3357,1.3357,0,0,0-.3086-.9014,3.6751,3.6751,0,0,0-1.0176-.7471,17.6358,17.6358,0,0,0-1.97-.875,9.122,9.122,0,0,1-3.3291-1.9062,3.5266,3.5266,0,0,1-.8691-2.4727,3.2457,3.2457,0,0,1,1.4746-2.8388,6.9934,6.9934,0,0,1,4.0107-1.0108,11.3568,11.3568,0,0,1,4.752,1.0176l-.9785,2.2783a10.5782,10.5782,0,0,0-3.876-.9521q-2.395,0-2.3955,1.3642a1.3728,1.3728,0,0,0,.625,1.1338,13.7657,13.7657,0,0,0,2.7236,1.2744,12.44,12.44,0,0,1,2.5615,1.249,3.7431,3.7431,0,0,1,1.1856,1.3067A3.7949,3.7949,0,0,1,379.3369,627.7854Z"/><path class="cls-1" d="M389.23,629.6516a7.3438,7.3438,0,0,0,2.2148-.3477v2.2793a6.0713,6.0713,0,0,1-1.2949.3672,8.9205,8.9205,0,0,1-1.6416.1484q-4.3008,0-4.3008-4.5332v-7.6738h-1.9443v-1.34l2.0859-1.1074,1.03-3.0127h1.8672V617.6h4.0566v2.292h-4.0566v7.6231a2.139,2.139,0,0,0,.5469,1.6152A1.9966,1.9966,0,0,0,389.23,629.6516Z"/><path class="cls-1" d="M407.6982,617.6v1.6612l-2.4345.45a3.9133,3.9133,0,0,1,.5537,1.1074,4.3518,4.3518,0,0,1,.22,1.3906,4.2614,4.2614,0,0,1-1.5195,3.4639,6.3581,6.3581,0,0,1-4.1856,1.2617,6.7951,6.7951,0,0,1-1.2353-.1026,1.7031,1.7031,0,0,0-.9795,1.4161.7867.7867,0,0,0,.458.7343,3.9484,3.9484,0,0,0,1.68.2442H402.74a5.5254,5.5254,0,0,1,3.58,1.0049,3.5318,3.5318,0,0,1,1.2227,2.8974,4.2121,4.2121,0,0,1-1.9951,3.7334,10.5085,10.5085,0,0,1-5.77,1.3135,7.956,7.956,0,0,1-4.4424-1.03,3.3289,3.3289,0,0,1-1.5322-2.9355,3.1249,3.1249,0,0,1,.8311-2.208,4.4536,4.4536,0,0,1,2.3242-1.2432,2.2644,2.2644,0,0,1-.9981-.83,2.0966,2.0966,0,0,1-.3925-1.2041,2.0689,2.0689,0,0,1,.45-1.3515,5.196,5.196,0,0,1,1.34-1.0948,3.96,3.96,0,0,1-1.7969-1.5517,4.5657,4.5657,0,0,1-.6884-2.5176,4.5137,4.5137,0,0,1,1.4609-3.5928,6.1472,6.1472,0,0,1,4.166-1.2744,10.1705,10.1705,0,0,1,1.2686.084,7.8743,7.8743,0,0,1,.997.1738Zm-11.19,16.4561a1.6654,1.6654,0,0,0,.8819,1.5068,4.8541,4.8541,0,0,0,2.4794.5274,7.4992,7.4992,0,0,0,3.6827-.708,2.1225,2.1225,0,0,0,1.21-1.88,1.41,1.41,0,0,0-.6631-1.32,5.3252,5.3252,0,0,0-2.4658-.3926h-2.292a3.217,3.217,0,0,0-2.0664.6123A2.0048,2.0048,0,0,0,396.5078,634.0559Zm1.3008-11.8467a2.8673,2.8673,0,0,0,.6885,2.06,2.6067,2.6067,0,0,0,1.9765.7208q2.628,0,2.627-2.8067a3.1854,3.1854,0,0,0-.65-2.1445,2.47,2.47,0,0,0-1.9766-.753,2.5481,2.5481,0,0,0-1.9892.7471A3.1408,3.1408,0,0,0,397.8086,622.2092Z"/><path class="cls-1" d="M417.166,632.0988A6.8907,6.8907,0,0,1,411.97,630.16a7.3566,7.3566,0,0,1-1.873-5.3369,8.0691,8.0691,0,0,1,1.7383-5.4854,6.0029,6.0029,0,0,1,4.7773-1.9961,5.8684,5.8684,0,0,1,4.4551,1.7129,6.5463,6.5463,0,0,1,1.6357,4.7129v1.6348h-9.49a4.6785,4.6785,0,0,0,1.12,3.1875,3.9034,3.9034,0,0,0,2.9746,1.1132,10.9631,10.9631,0,0,0,2.35-.2382,12.2551,12.2551,0,0,0,2.3369-.792v2.46a9.3221,9.3221,0,0,1-2.24.7471A13.7715,13.7715,0,0,1,417.166,632.0988Zm-.5537-12.4648a3.04,3.04,0,0,0-2.3115.9141,4.357,4.357,0,0,0-1.0361,2.666h6.4638a3.9447,3.9447,0,0,0-.85-2.6719A2.908,2.908,0,0,0,416.6123,619.634Z"/><path class="cls-1" d="M439.0781,631.841h-3.039v-8.7822a3.9794,3.9794,0,0,0-.6182-2.4394,2.277,2.277,0,0,0-1.9307-.8047,2.9462,2.9462,0,0,0-2.5693,1.14,6.6852,6.6852,0,0,0-.8174,3.792v7.0947h-3.0263V617.6h2.3691l.4248,1.8672h.1553a3.9413,3.9413,0,0,1,1.7187-1.5713,5.5421,5.5421,0,0,1,2.4785-.5537q3.2842,0,4.3526,2.24h.206a4.341,4.341,0,0,1,1.7774-1.6474,5.6269,5.6269,0,0,1,2.626-.5928A4.7822,4.7822,0,0,1,446.9,618.63a5.699,5.699,0,0,1,1.166,3.9268v9.2841H445.04v-8.7822a3.9513,3.9513,0,0,0-.624-2.4394,2.299,2.299,0,0,0-1.9385-.8047,3.0042,3.0042,0,0,0-2.582,1.1006,5.6762,5.6762,0,0,0-.8174,3.38Z"/><path class="cls-1" d="M459.3643,632.0988a6.89,6.89,0,0,1-5.1963-1.9384,7.3566,7.3566,0,0,1-1.8731-5.3369,8.0691,8.0691,0,0,1,1.7383-5.4854,6.0033,6.0033,0,0,1,4.7774-1.9961,5.8682,5.8682,0,0,1,4.455,1.7129,6.5459,6.5459,0,0,1,1.6358,4.7129v1.6348h-9.49a4.6785,4.6785,0,0,0,1.12,3.1875,3.9034,3.9034,0,0,0,2.9746,1.1132,10.9631,10.9631,0,0,0,2.35-.2382,12.2551,12.2551,0,0,0,2.3369-.792v2.46a9.325,9.325,0,0,1-2.24.7471A13.7715,13.7715,0,0,1,459.3643,632.0988Zm-.5537-12.4648a3.04,3.04,0,0,0-2.3116.9141,4.357,4.357,0,0,0-1.0361,2.666h6.4639a3.9447,3.9447,0,0,0-.85-2.6719A2.908,2.908,0,0,0,458.8106,619.634Z"/><path class="cls-1" d="M469.0664,613.8264a1.676,1.676,0,0,1,.4434-1.249,1.7365,1.7365,0,0,1,1.2685-.4375,1.7,1.7,0,0,1,1.2432.4375,1.6764,1.6764,0,0,1,.4443,1.249,1.644,1.644,0,0,1-.4443,1.2168,1.6794,1.6794,0,0,1-1.2432.4443,1.7154,1.7154,0,0,1-1.2685-.4443A1.6435,1.6435,0,0,1,469.0664,613.8264Zm3.2061,18.0146h-3.0264V617.6h3.0264Z"/><path class="cls-1" d="M489.8711,631.841H486.832v-8.7558a3.8333,3.8333,0,0,0-.663-2.46,2.5671,2.5671,0,0,0-2.1055-.81,3.3471,3.3471,0,0,0-2.8067,1.1328,6.2543,6.2543,0,0,0-.8886,3.7988v7.0947h-3.0264V617.6h2.3691l.4248,1.8672h.1553a4.2055,4.2055,0,0,1,1.8281-1.5713,6.1284,6.1284,0,0,1,2.627-.5537q5.124,0,5.125,5.2149Z"/><path class="cls-1" d="M499.8018,632.0988a4.9632,4.9632,0,0,1-4.1592-1.9316,10.5859,10.5859,0,0,1,.0195-10.874,5.0081,5.0081,0,0,1,4.1914-1.9512,4.9111,4.9111,0,0,1,4.2754,2.0733h.1543a18.0454,18.0454,0,0,1-.2187-2.4209v-5.19h3.039V631.841h-2.3691l-.5283-1.8672h-.1416A4.8377,4.8377,0,0,1,499.8018,632.0988Zm.8115-2.4472a3.2935,3.2935,0,0,0,2.7168-1.0488,5.5306,5.5306,0,0,0,.876-3.4063v-.4248a6.3818,6.3818,0,0,0-.876-3.8242,3.2494,3.2494,0,0,0-2.7422-1.1328,2.7823,2.7823,0,0,0-2.46,1.2939,6.6284,6.6284,0,0,0-.8623,3.6885,6.4617,6.4617,0,0,0,.8369,3.6123A2.8251,2.8251,0,0,0,500.6133,629.6516Z"/><path class="cls-1" d="M518.5088,632.0988a6.8905,6.8905,0,0,1-5.1963-1.9384,7.3566,7.3566,0,0,1-1.873-5.3369,8.07,8.07,0,0,1,1.7382-5.4854,6.0033,6.0033,0,0,1,4.7774-1.9961,5.8684,5.8684,0,0,1,4.4551,1.7129,6.5463,6.5463,0,0,1,1.6357,4.7129v1.6348h-9.49a4.678,4.678,0,0,0,1.12,3.1875,3.9034,3.9034,0,0,0,2.9746,1.1132,10.9631,10.9631,0,0,0,2.35-.2382,12.2551,12.2551,0,0,0,2.3369-.792v2.46a9.325,9.325,0,0,1-2.24.7471A13.7715,13.7715,0,0,1,518.5088,632.0988Zm-.5537-12.4648a3.04,3.04,0,0,0-2.3115.9141,4.3576,4.3576,0,0,0-1.0362,2.666h6.4639a3.9447,3.9447,0,0,0-.85-2.6719A2.908,2.908,0,0,0,517.9551,619.634Z"/><path class="cls-1" d="M540.9492,631.841H537.91v-8.7558a3.8327,3.8327,0,0,0-.6631-2.46,2.5671,2.5671,0,0,0-2.1055-.81,3.3469,3.3469,0,0,0-2.8066,1.1328,6.2535,6.2535,0,0,0-.8887,3.7988v7.0947H528.42V617.6h2.3692l.4248,1.8672h.1552a4.2057,4.2057,0,0,1,1.8282-1.5713,6.1277,6.1277,0,0,1,2.6269-.5537q5.124,0,5.125,5.2149Z"/><path class="cls-1" d="M568.8115,631.841h-3.5664l-5.9111-8.5244-1.8154,1.4805v7.0439h-3.0772V613.0158h3.0772v8.9873q1.2627-1.5453,2.5107-2.9746l5.0869-6.0127h3.502q-4.9321,5.7935-7.0694,8.2539Z"/><path class="cls-1" d="M576.3232,632.0988a4.9632,4.9632,0,0,1-4.1591-1.9316,10.5859,10.5859,0,0,1,.0195-10.874,5.0081,5.0081,0,0,1,4.1914-1.9512,4.9111,4.9111,0,0,1,4.2754,2.0733h.1543a18.0486,18.0486,0,0,1-.2188-2.4209v-5.19h3.0391V631.841h-2.3691l-.5284-1.8672h-.1416A4.8375,4.8375,0,0,1,576.3232,632.0988Zm.8116-2.4472a3.2935,3.2935,0,0,0,2.7168-1.0488,5.53,5.53,0,0,0,.8759-3.4063v-.4248a6.3819,6.3819,0,0,0-.8759-3.8242,3.2494,3.2494,0,0,0-2.7422-1.1328,2.7823,2.7823,0,0,0-2.46,1.2939,6.6284,6.6284,0,0,0-.8623,3.6885,6.4608,6.4608,0,0,0,.8369,3.6123A2.825,2.825,0,0,0,577.1348,629.6516Z"/><path class="cls-1" d="M601.4434,624.6946a7.7708,7.7708,0,0,1-1.79,5.4462,6.4074,6.4074,0,0,1-4.9824,1.958,6.83,6.83,0,0,1-3.5283-.9013,5.9458,5.9458,0,0,1-2.3565-2.5889,8.8051,8.8051,0,0,1-.8242-3.914,7.7154,7.7154,0,0,1,1.7774-5.4083,6.4429,6.4429,0,0,1,5.0088-1.9443,6.2729,6.2729,0,0,1,4.8925,1.9893A7.6832,7.6832,0,0,1,601.4434,624.6946Zm-10.79-10.8682a1.41,1.41,0,0,1,.4307-1.1524,1.6058,1.6058,0,0,1,1.05-.3535,1.5489,1.5489,0,0,1,1.082,2.6006,1.4619,1.4619,0,0,1-1.082.4121,1.5493,1.5493,0,0,1-1.05-.373A1.4207,1.4207,0,0,1,590.6533,613.8264Zm.4248,10.8682q0,4.932,3.6436,4.9316,3.6064,0,3.6055-4.9316,0-4.88-3.6309-4.88a3.0936,3.0936,0,0,0-2.7617,1.2617A6.4158,6.4158,0,0,0,591.0781,624.6946Zm4.6358-10.8682a1.41,1.41,0,0,1,.4306-1.1524,1.6058,1.6058,0,0,1,1.05-.3535,1.5092,1.5092,0,0,1,1.0948.3985,1.4726,1.4726,0,0,1,.4121,1.1074,1.4515,1.4515,0,0,1-.4248,1.1016,1.5039,1.5039,0,0,1-1.0821.4052,1.5493,1.5493,0,0,1-1.05-.373A1.4206,1.4206,0,0,1,595.7139,613.8264Z"/><path class="cls-1" d="M609.1924,624.3215v7.5195h-3.0772V613.0158h5.3174q3.6446,0,5.3955,1.3643a4.9014,4.9014,0,0,1,1.752,4.1211q0,3.5142-3.6572,5.0088l5.3173,8.331h-3.5019l-4.5068-7.5195Zm0-2.55H611.33a4.8806,4.8806,0,0,0,3.1162-.7988,2.8964,2.8964,0,0,0,.9658-2.3692,2.55,2.55,0,0,0-1.043-2.292,5.7171,5.7171,0,0,0-3.1416-.6953h-2.0351Z"/></svg>
